<?xml version="1.0" encoding="UTF-8" standalone="no"?>
<!DOCTYPE svg PUBLIC "-//W3C//DTD SVG 1.1//EN" "http://www.w3.org/Graphics/SVG/1.1/DTD/svg11.dtd">
<svg
    width="100%"
    height="100%"
    viewBox="0 0 405 145"
    version="1.1"
    xmlns="http://www.w3.org/2000/svg"
    xmlns:xlink="http://www.w3.org/1999/xlink"
    xml:space="preserve"
    style="fill-rule:evenodd;clip-rule:evenodd;stroke-linecap:round;stroke-linejoin:round;stroke-miterlimit:1.41421;">
    <g id="Layer1">
        <path
            d="M357.855,73.144L357.855,82.201C357.855,82.201 375.247,82.201 377.291,82.201C377.386,86.823 385.059,83.953 385.159,90.709C385.203,93.671 385.286,93.62 385.159,97.034C384.849,105.306 375.411,102.245 375.568,107.215C352.362,111.448 265.545,112.07 238.052,113.896C228.753,114.514 186.215,116.28 178.997,116.405C160.35,116.728 121.201,115.722 93.941,113.896C67.749,112.141 4.952,108.501 4.425,93.489C4.212,87.393 22.482,85.001 32.324,82.201C41.931,79.468 50.905,73.501 60.886,73.144C103.036,71.634 244.841,74.589 285.222,73.144C291.862,72.906 297.928,68.554 303.171,64.473C316.982,53.721 350.857,16.142 368.088,8.635C377.97,4.329 392.328,6.394 397.869,6.894C398.871,6.985 399.235,7.882 398.817,8.635C392.758,19.56 371.931,52.621 368.088,64.473C367.808,65.336 365.451,73.131 365.448,73.144L357.855,73.144ZM39.941,82.777C39.967,82.767 39.941,80.944 39.941,80.944C39.941,80.944 50.079,76.221 55.687,75.112C58.979,74.461 62.462,74.333 74.84,74.332C74.296,82.814 74.853,74.327 74.307,82.777C66.71,82.987 39.941,82.777 39.941,82.777Z"
            style="fill:aquamarine;stroke:aquamarine;stroke-width:1px;"/>
    </g>
</svg>
